<?xml version="1.0" encoding="UTF-8" standalone="no"?>
<svg
   xmlns:bx="https://boxy-svg.com"
   xmlns:dc="http://purl.org/dc/elements/1.1/"
   xmlns:cc="http://creativecommons.org/ns#"
   xmlns:rdf="http://www.w3.org/1999/02/22-rdf-syntax-ns#"
   xmlns:svg="http://www.w3.org/2000/svg"
   xmlns="http://www.w3.org/2000/svg"
   xmlns:sodipodi="http://sodipodi.sourceforge.net/DTD/sodipodi-0.dtd"
   xmlns:inkscape="http://www.inkscape.org/namespaces/inkscape"
   width="2048"
   height="2048"
   version="1.1"
   id="svg4689"
   sodipodi:docname="app.svg"
   inkscape:version="0.92.4 (33fec40, 2019-01-16)"
   inkscape:export-filename="/home/MEYCLUB/dogierdenis/Projets-perso/openWMailDod/assets/icons/app_16.png"
   inkscape:export-xdpi="1.5"
   inkscape:export-ydpi="1.5">
  <metadata
     id="metadata4693">
    <rdf:RDF>
      <cc:Work
         rdf:about="">
        <dc:format>image/svg+xml</dc:format>
        <dc:type
           rdf:resource="http://purl.org/dc/dcmitype/StillImage" />
        <dc:title></dc:title>
      </cc:Work>
    </rdf:RDF>
  </metadata>
  <sodipodi:namedview
     pagecolor="#ffffff"
     bordercolor="#666666"
     borderopacity="1"
     objecttolerance="10"
     gridtolerance="10"
     guidetolerance="10"
     inkscape:pageopacity="0"
     inkscape:pageshadow="2"
     inkscape:window-width="1920"
     inkscape:window-height="994"
     id="namedview4691"
     showgrid="false"
     inkscape:pagecheckerboard="true"
     inkscape:zoom="0.23046875"
     inkscape:cx="724.52139"
     inkscape:cy="448.81347"
     inkscape:window-x="1920"
     inkscape:window-y="0"
     inkscape:window-maximized="1"
     inkscape:current-layer="g4687" />
  <rect
     id="backgroundrect"
     width="100%"
     height="100%"
     x="0"
     y="1024"
     style="fill:none;stroke:none" />
  <defs
     id="defs4680">
    <pattern
       id="pattern-1"
       x="0"
       y="0"
       width="20"
       height="20"
       patternUnits="userSpaceOnUse"
       viewBox="0 0 100 100">
      <path
         d="M 0 0 L 50 0 L 50 100 L 0 100 Z"
         style="fill: black;"
         id="svg_1" />
    </pattern>
    <linearGradient
       id="gradient-9"
       gradientUnits="userSpaceOnUse"
       x1="249.19"
       y1="19.167999"
       x2="249.19"
       y2="480.832"
       gradientTransform="matrix(1.866404,0,0,1.873197,46.911692,43.701087)">
      <stop
         style="stop-color: rgb(252, 253, 255);"
         offset="0"
         id="stop4675" />
      <stop
         style="stop-color: rgb(235, 235, 235);"
         offset="1"
         id="stop4677" />
    </linearGradient>
  </defs>
  <g
     class="currentLayer"
     id="g4687"
     transform="translate(0,1024)">
    <title
       id="title4682">Layer 1</title>
    <path
       d="m 238,238 h 24 v 24 h -24 z"
       style="fill:none"
       bx:origin="0.5 0.5"
       id="svg_2"
       inkscape:connector-curvature="0" />
    <path
       stroke-dashoffset=""
       d="M 160.87393,0.05236167 C 162.30249,-862.0168 162.86511,-866.16424 1024.0359,-864.73566 c 861.1708,1.42858 863.6662,0.534 863.162,864.78802167 -0.5042,864.25401833 -4.8483,864.78801833 -863.162,864.78801833 -858.31365,0 -864.59053,-2.7189 -863.16197,-864.78801833 z"
       id="svg_3"
       class=""
       style="opacity:1;fill:#ffffff;fill-opacity:1;fill-rule:nonzero;stroke:#1e88e5;stroke-width:100;stroke-linecap:butt;stroke-linejoin:miter;stroke-dasharray:none;stroke-opacity:1"
       inkscape:connector-curvature="0" />
    <g
       aria-label="@"
       style="font-style:normal;font-variant:normal;font-weight:normal;font-stretch:normal;font-size:640px;line-height:50px;font-family:'Khmer OS';-inkscape-font-specification:'Khmer OS';letter-spacing:0px;word-spacing:0px;fill:#1e88e5;fill-opacity:1;stroke:none;stroke-width:0.99999994"
       id="text4532"
       transform="matrix(2,0,0,2,0,-1024)">
      <path
         d="m 622.3125,383.25 h 53.125 l -57.5,179.0625 q -7.8125,22.5 -7.8125,32.1875 0,17.1875 18.75,25.625 6.25,2.5 13.4375,2.5 40.9375,0 74.6875,-46.25 32.8125,-45.3125 32.8125,-100.9375 0,-76.875 -62.1875,-133.75 -63.4375,-59.0625 -153.4375,-62.8125 -4.6875,0 -9.6875,0 -94.0625,0 -166.5625,65.3125 l -21.5625,21.875 q -63.4375,72.1875 -63.4375,163.125 0,90.3125 67.1875,152.1875 69.0625,64.0625 172.8125,64.0625 50.625,0 123.4375,-20.625 L 654.5,767.625 Q 582.625,794.5 509.8125,794.5 394.5,794.5 310.75,726.0625 232.625,662.3125 220.4375,568.25 q -1.875,-14.6875 -1.875,-29.375 0,-98.75 60.9375,-181.875 17.8125,-25 40.3125,-44.6875 69.0625,-62.8125 165.625,-78.75 23.75,-4.0625 47.5,-4.0625 106.25,0 184.6875,64.6875 Q 792,354.5 803.5625,440.75 q 1.875,13.4375 1.875,26.875 0,77.5 -55,142.8125 -48.75,56.875 -119.0625,56.875 -61.5625,0 -70.3125,-49.0625 -42.1875,45.9375 -90.9375,45.9375 -52.5,0 -82.5,-44.0625 Q 365.75,588.5625 365.75,547 q 0,-69.6875 50.625,-123.4375 49.375,-53.125 113.75,-53.75 53.75,0 78.125,55.625 z m -95.9375,27.5 q -42.1875,0 -74.0625,45.3125 -29.0625,40.3125 -29.0625,91.5625 0,43.125 30.3125,64.6875 15.3125,10.9375 33.125,10.9375 37.1875,0 65.3125,-41.5625 21.25,-30.625 31.25,-84.6875 2.8125,-14.0625 3.4375,-24.6875 1.875,-34.6875 -26.25,-52.5 -15.625,-9.0625 -34.0625,-9.0625 z"
         style="font-style:normal;font-variant:normal;font-weight:normal;font-stretch:normal;font-size:640px;line-height:50px;font-family:'Khmer OS';-inkscape-font-specification:'Khmer OS';fill:#1e88e5;fill-opacity:1;stroke-width:0.99999994"
         id="path5256"
         inkscape:connector-curvature="0" />
    </g>
  </g>
</svg>
