<svg xmlns:bx="https://boxy-svg.com" xmlns="http://www.w3.org/2000/svg" width="2048" height="2048"><rect width="100%" height="100%" y="1024" fill="none"/><g class="currentLayer" transform="translate(0 1024)"><path d="M238 238h24v24h-24z" bx:origin="0.5 0.5" fill="none"/><path d="M160.874.052c1.428-862.069 1.991-866.216 863.162-864.788 861.17 1.429 863.666.534 863.162 864.788-.504 864.254-4.848 864.788-863.162 864.788-858.314 0-864.59-2.719-863.162-864.788z" fill="#fff" stroke="#1e88e5" stroke-width="100"/><path d="M1244.625-257.5h106.25l-115 358.125q-15.625 45-15.625 64.375 0 34.375 37.5 51.25 12.5 5 26.875 5 81.875 0 149.375-92.5 65.625-90.625 65.625-201.875 0-153.75-124.375-267.5-126.875-118.125-306.875-125.625H1049q-188.125 0-333.125 130.625l-43.125 43.75Q545.875-147.5 545.875 34.375q0 180.625 134.375 304.375 138.125 128.125 345.625 128.125 101.25 0 246.875-41.25L1309 511.25Q1165.25 565 1019.625 565 789 565 621.5 428.125 465.25 300.625 440.875 112.5q-3.75-29.375-3.75-58.75 0-197.5 121.875-363.75 35.625-50 80.625-89.375Q777.75-525 970.875-556.875q47.5-8.125 95-8.125 212.5 0 369.375 129.375Q1584-315 1607.125-142.5q3.75 26.875 3.75 53.75 0 155-110 285.625-97.5 113.75-238.125 113.75-123.125 0-140.625-98.125-84.375 91.875-181.875 91.875-105 0-165-88.125Q731.5 153.125 731.5 70q0-139.375 101.25-246.875 98.75-106.25 227.5-107.5 107.5 0 156.25 111.25zm-191.875 55q-84.375 0-148.125 90.625Q846.5-31.25 846.5 71.25q0 86.25 60.625 129.375 30.625 21.875 66.25 21.875 74.375 0 130.625-83.125 42.5-61.25 62.5-169.375 5.625-28.125 6.875-49.375 3.75-69.375-52.5-105-31.25-18.125-68.125-18.125z" style="line-height:50px;-inkscape-font-specification:'Khmer OS'" aria-label="@" font-weight="400" font-size="640" font-family="Khmer OS" letter-spacing="0" word-spacing="0" fill="#1e88e5"/></g></svg>